<?xml version="1.0" encoding="UTF-8"?>
<svg width="512px" height="512px" viewBox="0 0 512 512" version="1.1" xmlns="http://www.w3.org/2000/svg" xmlns:xlink="http://www.w3.org/1999/xlink">
    <title>upwork-tile</title>
    <g id="Page-1" stroke="none" stroke-width="1" fill="none" fill-rule="evenodd">
        <g id="upwork-tile" fill-rule="nonzero">
            <rect id="Rectangle" fill="#FFFFFF" x="0" y="0" width="512" height="512" rx="15"></rect>
            <path d="M357.2,296.9 C340.2,296.9 324.2,289.7 309.8,278 L313.3,261.4 L313.4,260.8 C316.6,243.2 326.5,213.6 357.2,213.6 C380.2,213.6 398.9,232.3 398.9,255.3 C398.9,278.3 380.2,296.9 357.2,296.9 L357.2,296.9 Z M357.2,171.4 C318,171.4 287.7,196.8 275.3,238.7 C256.5,210.4 242.2,176.5 233.9,147.9 L191.7,147.9 L191.7,257.6 C191.7,279.3 174.1,296.9 152.4,296.9 C130.7,296.9 113.1,279.3 113.1,257.6 L113.1,147.8 L71,147.8 L71,257.5 C71,302.4 107.5,339.3 152.4,339.3 C197.3,339.3 233.8,302.4 233.8,257.5 L233.8,239.1 C242,256.2 252,273.5 264.2,288.7 L238.4,410.1 L281.5,410.1 L300.2,322.1 C316.6,332.6 335.4,339.2 357,339.2 C403.2,339.2 440.800399,301.4 440.800399,255.1 C440.9,209 403.4,171.4 357.2,171.4" id="Shape" fill="#1C1C1C"></path>
        </g>
    </g>
</svg>